<svg width="18" height="18" viewBox="0 0 18 18" fill="none" xmlns="http://www.w3.org/2000/svg">
<path fill-rule="evenodd" clip-rule="evenodd" d="M18 11.25V16.5C18 17.3284 17.3284 18 16.5 18H1.5C0.671573 18 0 17.3284 0 16.5V11.25C0 10.8358 0.335786 10.5 0.75 10.5C1.16421 10.5 1.5 10.8358 1.5 11.25V16.5H16.5V11.25C16.5 10.8358 16.8358 10.5 17.25 10.5C17.6642 10.5 18 10.8358 18 11.25ZM8.46937 11.7806C8.61005 11.9215 8.80094 12.0006 9 12.0006C9.19906 12.0006 9.38995 11.9215 9.53063 11.7806L13.2806 8.03063C13.5737 7.73757 13.5737 7.26243 13.2806 6.96937C12.9876 6.67632 12.5124 6.67632 12.2194 6.96937L9.75 9.43969V0.75C9.75 0.335786 9.41421 0 9 0C8.58579 0 8.25 0.335786 8.25 0.75V9.43969L5.78063 6.96937C5.48757 6.67632 5.01243 6.67632 4.71938 6.96937C4.42632 7.26243 4.42632 7.73757 4.71938 8.03063L8.46937 11.7806Z" fill="white"/>
</svg>
