<svg width="20" height="19" viewBox="0 0 20 19" fill="none" xmlns="http://www.w3.org/2000/svg">
<path fill-rule="evenodd" clip-rule="evenodd" d="M18.2395 4.56038H11.7141L14.9773 1.29816C15.1694 1.10606 15.2444 0.826077 15.1741 0.563668C15.1038 0.301259 14.8988 0.0962945 14.6364 0.0259823C14.374 -0.0443299 14.094 0.0306922 13.9019 0.222789L9.87974 4.24593L5.85755 0.222789C5.66545 0.0306924 5.38546 -0.0443299 5.12305 0.0259823C4.86065 0.0962945 4.65568 0.301259 4.58537 0.563668C4.51506 0.826077 4.59008 1.10606 4.78218 1.29816L8.04534 4.56038H1.51996C0.68051 4.56038 0 5.24089 0 6.08034V17.48C0 18.3195 0.68051 19 1.51996 19H18.2395C19.079 19 19.7595 18.3195 19.7595 17.48V6.08034C19.7595 5.24089 19.079 4.56038 18.2395 4.56038ZM1.51996 6.08034H11.3997V17.48H1.51996V6.08034ZM18.2395 17.48H12.9197V6.08034H18.2395V17.48ZM16.7196 9.50025C16.7196 10.1298 16.2092 10.6402 15.5796 10.6402C14.95 10.6402 14.4396 10.1298 14.4396 9.50025C14.4396 8.87066 14.95 8.36028 15.5796 8.36028C16.2092 8.36028 16.7196 8.87066 16.7196 9.50025ZM16.7196 14.0601C16.7196 14.6897 16.2092 15.2001 15.5796 15.2001C14.95 15.2001 14.4396 14.6897 14.4396 14.0601C14.4396 13.4305 14.95 12.9202 15.5796 12.9202C16.2092 12.9202 16.7196 13.4305 16.7196 14.0601Z" fill="white"/>
</svg>
