<svg width="21" height="16" viewBox="0 0 21 16" fill="none" xmlns="http://www.w3.org/2000/svg">
<path fill-rule="evenodd" clip-rule="evenodd" d="M20.25 11.25H19.5V2.25C19.5 1.00736 18.4926 0 17.25 0H3.75C2.50736 0 1.5 1.00736 1.5 2.25V11.25H0.75C0.335786 11.25 0 11.5858 0 12V13.5C0 14.7426 1.00736 15.75 2.25 15.75H18.75C19.9926 15.75 21 14.7426 21 13.5V12C21 11.5858 20.6642 11.25 20.25 11.25ZM3 2.25C3 1.83579 3.33579 1.5 3.75 1.5H17.25C17.6642 1.5 18 1.83579 18 2.25V11.25H3V2.25ZM19.5 13.5C19.5 13.9142 19.1642 14.25 18.75 14.25H2.25C1.83579 14.25 1.5 13.9142 1.5 13.5V12.75H19.5V13.5ZM12.75 3.75C12.75 4.16421 12.4142 4.5 12 4.5H9C8.58579 4.5 8.25 4.16421 8.25 3.75C8.25 3.33579 8.58579 3 9 3H12C12.4142 3 12.75 3.33579 12.75 3.75Z" fill="white"/>
</svg>
