<svg width="21" height="16" viewBox="0 0 21 16" fill="none" xmlns="http://www.w3.org/2000/svg">
<path fill-rule="evenodd" clip-rule="evenodd" d="M11.625 14.6257C11.625 15.247 11.1213 15.7507 10.5 15.7507C9.8787 15.7507 9.37504 15.247 9.37504 14.6257C9.37504 14.0044 9.8787 13.5007 10.5 13.5007C11.1213 13.5007 11.625 14.0044 11.625 14.6257ZM20.7259 3.65734C14.7807 -1.21911 6.21933 -1.21911 0.274107 3.65734C-0.0461211 3.92036 -0.0925 4.39317 0.170517 4.7134C0.433533 5.03363 0.906346 5.08001 1.22657 4.81699C6.61831 0.395498 14.3817 0.395498 19.7734 4.81699C20.0937 5.08001 20.5665 5.03363 20.8295 4.7134C21.0925 4.39317 21.0461 3.92036 20.7259 3.65734ZM17.7185 7.01066C13.4904 3.66321 7.51524 3.66321 3.28713 7.01066C2.9625 7.26798 2.90793 7.73975 3.16526 8.06438C3.42258 8.38901 3.89434 8.44357 4.21897 8.18625C7.90122 5.27155 13.1044 5.27155 16.7867 8.18625C16.9425 8.30984 17.1411 8.36643 17.3388 8.34358C17.5364 8.32072 17.7168 8.22029 17.8404 8.06438C17.964 7.90849 18.0206 7.70989 17.9977 7.51228C17.9748 7.31466 17.8744 7.13422 17.7185 7.01066ZM14.6942 10.363C12.1951 8.54677 8.81053 8.54677 6.3114 10.363C5.97641 10.6069 5.90254 11.0762 6.1464 11.4111C6.39026 11.7461 6.85951 11.82 7.19449 11.5761C9.16682 10.1417 11.8388 10.1417 13.8111 11.5761C14.1461 11.82 14.6154 11.7461 14.8592 11.4111C15.1031 11.0762 15.0292 10.6069 14.6942 10.363Z" fill="white"/>
</svg>
