<svg width="24" height="32" viewBox="0 0 24 32" fill="none" xmlns="http://www.w3.org/2000/svg">
<g clip-path="url(#clip0_2_1021)">
<path fill-rule="evenodd" clip-rule="evenodd" d="M21 10.75H19.5V10C19.5 8.75736 18.4926 7.75 17.25 7.75H3.75C2.50736 7.75 1.5 8.75736 1.5 10V19C1.5 20.2426 2.50736 21.25 3.75 21.25H14.25V22C14.25 23.2426 15.2574 24.25 16.5 24.25H21C22.2426 24.25 23.25 23.2426 23.25 22V13C23.25 11.7574 22.2426 10.75 21 10.75ZM21.75 22C21.75 22.4142 21.4142 22.75 21 22.75H16.5C16.0858 22.75 15.75 22.4142 15.75 22V13C15.75 12.5858 16.0858 12.25 16.5 12.25H21C21.4142 12.25 21.75 12.5858 21.75 13V22ZM12.75 23.5C12.75 23.9142 12.4142 24.25 12 24.25H8.25C7.83579 24.25 7.5 23.9142 7.5 23.5C7.5 23.0858 7.83579 22.75 8.25 22.75H12C12.4142 22.75 12.75 23.0858 12.75 23.5ZM20.25 14.5C20.25 14.9142 19.9142 15.25 19.5 15.25H18C17.5858 15.25 17.25 14.9142 17.25 14.5C17.25 14.0858 17.5858 13.75 18 13.75H19.5C19.9142 13.75 20.25 14.0858 20.25 14.5Z" fill="white"/>
</g>
<defs>
<clipPath id="clip0_2_1021">
<rect width="24" height="24" fill="white" transform="translate(0 4)"/>
</clipPath>
</defs>
</svg>
