<svg width="48" height="48" viewBox="0 0 48 48" fill="none" xmlns="http://www.w3.org/2000/svg">
<g clip-path="url(#clip0_54_296)">
<path fill-rule="evenodd" clip-rule="evenodd" d="M36 19.5C33.5147 19.5 31.5 21.5147 31.5 24C31.5 26.4853 33.5147 28.5 36 28.5C38.4853 28.5 40.5 26.4853 40.5 24C40.4974 21.5158 38.4842 19.5026 36 19.5ZM36 27C34.3431 27 33 25.6569 33 24C33 22.3431 34.3431 21 36 21C37.6569 21 39 22.3431 39 24C39 25.6569 37.6569 27 36 27ZM44.25 24.2025C44.2537 24.0675 44.2537 23.9325 44.25 23.7975L45.6488 22.05C45.7975 21.8639 45.849 21.6183 45.7875 21.3881C45.5582 20.5262 45.2152 19.6986 44.7675 18.9272C44.6486 18.7225 44.4401 18.5859 44.205 18.5588L41.9813 18.3113C41.8888 18.2138 41.795 18.12 41.7 18.03L41.4375 15.8006C41.4101 15.5653 41.2732 15.3568 41.0681 15.2381C40.2964 14.7913 39.4689 14.4486 38.6072 14.2191C38.3769 14.1578 38.1312 14.2097 37.9453 14.3588L36.2025 15.75C36.0675 15.75 35.9325 15.75 35.7975 15.75L34.05 14.3541C33.8639 14.2053 33.6183 14.1538 33.3881 14.2153C32.5263 14.445 31.6988 14.788 30.9272 15.2353C30.7225 15.3542 30.5859 15.5627 30.5588 15.7978L30.3113 18.0253C30.2138 18.1184 30.12 18.2122 30.03 18.3066L27.8006 18.5625C27.5653 18.5899 27.3568 18.7268 27.2381 18.9319C26.7913 19.7036 26.4486 20.5311 26.2191 21.3928C26.1578 21.6231 26.2097 21.8688 26.3588 22.0547L27.75 23.7975C27.75 23.9325 27.75 24.0675 27.75 24.2025L26.3541 25.95C26.2053 26.1361 26.1538 26.3817 26.2153 26.6119C26.4446 27.4738 26.7876 28.3014 27.2353 29.0728C27.3542 29.2775 27.5627 29.4141 27.7978 29.4412L30.0216 29.6887C30.1147 29.7862 30.2084 29.88 30.3028 29.97L30.5625 32.1994C30.5899 32.4347 30.7268 32.6432 30.9319 32.7619C31.7036 33.2087 32.5311 33.5514 33.3928 33.7809C33.6231 33.8422 33.8688 33.7903 34.0547 33.6413L35.7975 32.25C35.9325 32.2537 36.0675 32.2537 36.2025 32.25L37.95 33.6488C38.1361 33.7975 38.3817 33.849 38.6119 33.7875C39.4738 33.5582 40.3014 33.2152 41.0728 32.7675C41.2775 32.6486 41.4141 32.4401 41.4412 32.205L41.6887 29.9813C41.7862 29.8888 41.88 29.795 41.97 29.7L44.1994 29.4375C44.4347 29.4101 44.6432 29.2732 44.7619 29.0681C45.2087 28.2964 45.5514 27.4689 45.7809 26.6072C45.8422 26.3769 45.7903 26.1312 45.6413 25.9453L44.25 24.2025ZM42.7406 23.5931C42.7566 23.8641 42.7566 24.1359 42.7406 24.4069C42.7295 24.5924 42.7876 24.7755 42.9037 24.9206L44.2341 26.5828C44.0814 27.0679 43.886 27.5385 43.65 27.9891L41.5312 28.2291C41.3467 28.2495 41.1764 28.3377 41.0531 28.4766C40.8727 28.6795 40.6805 28.8717 40.4775 29.0522C40.3387 29.1754 40.2505 29.3458 40.23 29.5303L39.9947 31.6472C39.5442 31.8833 39.0736 32.0787 38.5884 32.2313L36.9253 30.9009C36.7922 30.7946 36.6269 30.7367 36.4566 30.7369H36.4116C36.1405 30.7528 35.8688 30.7528 35.5978 30.7369C35.4123 30.7257 35.2292 30.7838 35.0841 30.9L33.4172 32.2313C32.9321 32.0786 32.4615 31.8831 32.0109 31.6472L31.7709 29.5312C31.7505 29.3467 31.6623 29.1764 31.5234 29.0531C31.3205 28.8727 31.1283 28.6805 30.9478 28.4775C30.8246 28.3387 30.6542 28.2505 30.4697 28.23L28.3528 27.9937C28.1167 27.5433 27.9213 27.0727 27.7687 26.5875L29.0991 24.9244C29.2152 24.7793 29.2734 24.5962 29.2622 24.4106C29.2463 24.1396 29.2463 23.8679 29.2622 23.5969C29.2734 23.4113 29.2152 23.2282 29.0991 23.0831L27.7687 21.4172C27.9214 20.9321 28.1169 20.4615 28.3528 20.0109L30.4688 19.7709C30.6533 19.7505 30.8236 19.6623 30.9469 19.5234C31.1273 19.3205 31.3195 19.1283 31.5225 18.9478C31.6619 18.8245 31.7504 18.6537 31.7709 18.4688L32.0063 16.3528C32.4567 16.1167 32.9273 15.9213 33.4125 15.7687L35.0756 17.0991C35.2207 17.2152 35.4038 17.2734 35.5894 17.2622C35.8604 17.2463 36.1321 17.2463 36.4031 17.2622C36.5887 17.2734 36.7718 17.2152 36.9169 17.0991L38.5828 15.7687C39.0679 15.9214 39.5385 16.1169 39.9891 16.3528L40.2291 18.4688C40.2495 18.6533 40.3377 18.8236 40.4766 18.9469C40.6795 19.1273 40.8717 19.3195 41.0522 19.5225C41.1754 19.6613 41.3458 19.7495 41.5303 19.77L43.6472 20.0053C43.8833 20.4558 44.0787 20.9264 44.2313 21.4116L42.9009 23.0747C42.7837 23.221 42.7255 23.406 42.7378 23.5931H42.7406Z" fill="white"/>
</g>
<defs>
<clipPath id="clip0_54_296">
<rect width="24" height="24" fill="white" transform="translate(24 12)"/>
</clipPath>
</defs>
</svg>
