<svg width="22" height="20" viewBox="0 0 22 20" fill="none" xmlns="http://www.w3.org/2000/svg">
<path fill-rule="evenodd" clip-rule="evenodd" d="M13.2294 0.0766869C12.9691 -0.0501377 12.6594 -0.0177635 12.4309 0.160135L5.80819 5.31022H1.51724C0.679292 5.31022 0 5.98951 0 6.82746V12.8964C0 13.7344 0.679292 14.4137 1.51724 14.4137H5.80819L12.4309 19.5638C12.6596 19.7415 12.9695 19.7736 13.2297 19.6464C13.4899 19.5192 13.655 19.255 13.6552 18.9654V0.758497C13.6552 0.468533 13.49 0.203909 13.2294 0.0766869ZM1.51724 6.82746H5.31034V12.8964H1.51724V6.82746ZM12.1379 17.414L6.82759 13.2843V6.43962L12.1379 2.30988V17.414ZM17.2586 7.3547C18.521 8.78783 18.521 10.9361 17.2586 12.3692C16.9798 12.6756 16.5066 12.7016 16.1959 12.4276C15.8851 12.1536 15.8516 11.681 16.1207 11.3659C16.8777 10.5062 16.8777 9.21774 16.1207 8.35798C15.8516 8.04293 15.8851 7.57027 16.1959 7.29627C16.5066 7.02228 16.9798 7.04829 17.2586 7.3547ZM22 9.86195C22.0011 11.7283 21.3133 13.5295 20.0684 14.92C19.7872 15.2243 19.3139 15.2467 19.0053 14.9704C18.6966 14.6941 18.6667 14.2213 18.938 13.9082C20.9984 11.6045 20.9984 8.12034 18.938 5.8166C18.7521 5.61545 18.6891 5.3297 18.7731 5.069C18.8571 4.8083 19.0751 4.61314 19.3435 4.5584C19.6119 4.50365 19.8889 4.59783 20.0684 4.80479C21.3136 6.19479 22.0015 7.99576 22 9.86195Z" fill="white"/>
</svg>
