<svg width="20" height="18" viewBox="0 0 20 18" fill="none" xmlns="http://www.w3.org/2000/svg">
<path fill-rule="evenodd" clip-rule="evenodd" d="M16.9242 11.5393C15.5212 11.5406 14.296 12.4891 13.9433 13.8471H4.6157C2.91625 13.8471 1.53857 12.4694 1.53857 10.77C1.53857 9.07052 2.91625 7.69284 4.6157 7.69284H13.8471C15.9714 7.69284 17.6935 5.97074 17.6935 3.84642C17.6935 1.7221 15.9714 0 13.8471 0H4.6157C4.19084 0 3.84642 0.34442 3.84642 0.769284C3.84642 1.19415 4.19084 1.53857 4.6157 1.53857H13.8471C15.1217 1.53857 16.155 2.57183 16.155 3.84642C16.155 5.12101 15.1217 6.15427 13.8471 6.15427H4.6157C2.06652 6.15427 0 8.22079 0 10.77C0 13.3192 2.06652 15.3857 4.6157 15.3857H13.9433C14.343 16.9338 15.8618 17.9179 17.4381 17.6501C19.0144 17.3823 20.123 15.9518 19.989 14.3586C19.855 12.7653 18.5231 11.5401 16.9242 11.5393ZM16.9242 16.155C16.0745 16.155 15.3857 15.4661 15.3857 14.6164C15.3857 13.7667 16.0745 13.0778 16.9242 13.0778C17.774 13.0778 18.4628 13.7667 18.4628 14.6164C18.4628 15.4661 17.774 16.155 16.9242 16.155Z" fill="white"/>
</svg>
