<svg width="24" height="16" viewBox="0 0 24 16" fill="none" xmlns="http://www.w3.org/2000/svg">
<path fill-rule="evenodd" clip-rule="evenodd" d="M10.9776 10.4874C13.0775 9.08933 14.0145 6.48121 13.2842 4.06646C12.5539 1.65172 10.3287 -8.63606e-05 7.80591 -8.63606e-05C5.28315 -8.63606e-05 3.05792 1.65172 2.32764 4.06646C1.59735 6.48121 2.53428 9.08933 4.63424 10.4874C2.78417 11.1692 1.20416 12.431 0.129984 14.0845C-0.0236608 14.3128 -0.0424309 14.6062 0.080863 14.8523C0.204157 15.0984 0.450408 15.259 0.725305 15.2726C1.0002 15.2863 1.26114 15.1508 1.40819 14.9182C2.81595 12.753 5.22331 11.4467 7.80591 11.4467C10.3885 11.4467 12.7959 12.753 14.2036 14.9182C14.4365 15.2643 14.9042 15.3593 15.2537 15.1313C15.6031 14.9034 15.7047 14.4371 15.4818 14.0845C14.4077 12.431 12.8277 11.1692 10.9776 10.4874ZM3.60881 5.72556C3.60881 3.40756 5.48792 1.52845 7.80591 1.52845C10.1239 1.52845 12.003 3.40756 12.003 5.72556C12.003 8.04355 10.1239 9.92266 7.80591 9.92266C5.48901 9.92003 3.61144 8.04246 3.60881 5.72556ZM23.6538 15.1404C23.3008 15.3706 22.8281 15.2711 22.5978 14.9182C21.1917 12.7515 18.7831 11.4454 16.2001 11.4489C15.7787 11.4489 15.437 11.1072 15.437 10.6858C15.437 10.2643 15.7787 9.92266 16.2001 9.92266C17.8905 9.92106 19.4149 8.9056 20.0677 7.34638C20.7204 5.78716 20.3741 3.98851 19.1891 2.78312C18.0041 1.57774 16.2116 1.20088 14.6415 1.82702C14.3866 1.93719 14.092 1.90025 13.8723 1.73057C13.6525 1.56089 13.5423 1.28524 13.5844 1.01081C13.6265 0.736383 13.8143 0.506479 14.0749 0.410499C16.7962 -0.674828 19.8978 0.470283 21.2611 3.06366C22.6243 5.65703 21.8089 8.86112 19.3718 10.4874C21.2219 11.1692 22.8019 12.431 23.876 14.0845C24.1062 14.4374 24.0067 14.9102 23.6538 15.1404Z" fill="white"/>
</svg>
