<svg width="28" height="28" viewBox="0 0 28 28" fill="none" xmlns="http://www.w3.org/2000/svg">
<g clip-path="url(#clip0_2_219)">
<path fill-rule="evenodd" clip-rule="evenodd" d="M23.3103 8.87844L19.1216 4.68875C18.8402 4.40737 18.4587 4.24929 18.0608 4.24929C17.6629 4.24929 17.2813 4.40737 17 4.68875L5.43969 16.25C5.15711 16.5303 4.99873 16.9123 5 17.3103V21.5C5 22.3284 5.67157 23 6.5 23H10.6897C11.0877 23.0013 11.4697 22.8429 11.75 22.5603L23.3103 11C23.5917 10.7187 23.7498 10.3371 23.7498 9.93922C23.7498 9.54133 23.5917 9.15975 23.3103 8.87844ZM10.6897 21.5H6.5V17.3103L14.75 9.06031L18.9397 13.25L10.6897 21.5ZM20 12.1888L15.8103 8L18.0603 5.75L22.25 9.93875L20 12.1888Z" fill="white"/>
</g>
<defs>
<clipPath id="clip0_2_219">
<rect width="24" height="24" fill="white" transform="translate(2 2)"/>
</clipPath>
</defs>
</svg>
