<svg width="24" height="32" viewBox="0 0 24 32" fill="none" xmlns="http://www.w3.org/2000/svg">
<g clip-path="url(#clip0_64_449)">
<path fill-rule="evenodd" clip-rule="evenodd" d="M20.25 16.2025C20.2537 16.0675 20.2537 15.9325 20.25 15.7975L21.6488 14.05C21.7975 13.8639 21.849 13.6183 21.7875 13.3881C21.5578 12.5263 21.2148 11.6988 20.7675 10.9272C20.6486 10.7225 20.4401 10.5859 20.205 10.5588L17.9813 10.3113C17.8888 10.2138 17.795 10.12 17.7 10.03L17.4375 7.80063C17.4101 7.56531 17.2732 7.35677 17.0681 7.23813C16.2966 6.79117 15.469 6.4488 14.6072 6.22C14.377 6.15851 14.1314 6.21001 13.9453 6.35875L12.2025 7.75C12.0675 7.75 11.9325 7.75 11.7975 7.75L10.05 6.35406C9.86393 6.20533 9.61827 6.15383 9.38813 6.21531C8.52633 6.44503 7.6988 6.78802 6.92719 7.23531C6.72249 7.35417 6.58592 7.56268 6.55875 7.79781L6.31125 10.0253C6.21375 10.1184 6.12 10.2122 6.03 10.3066L3.80063 10.5625C3.56531 10.5899 3.35677 10.7268 3.23813 10.9319C2.79126 11.7036 2.44859 12.5311 2.21906 13.3928C2.15784 13.6231 2.20969 13.8688 2.35875 14.0547L3.75 15.7975C3.75 15.9325 3.75 16.0675 3.75 16.2025L2.35406 17.95C2.20533 18.1361 2.15383 18.3817 2.21531 18.6119C2.44503 19.4737 2.78802 20.3012 3.23531 21.0728C3.35417 21.2775 3.56268 21.4141 3.79781 21.4412L6.02156 21.6887C6.11469 21.7862 6.20844 21.88 6.30281 21.97L6.5625 24.1994C6.58988 24.4347 6.72682 24.6432 6.93188 24.7619C7.70359 25.2087 8.5311 25.5514 9.39281 25.7809C9.6231 25.8422 9.86878 25.7903 10.0547 25.6413L11.7975 24.25C11.9325 24.2537 12.0675 24.2537 12.2025 24.25L13.95 25.6488C14.1361 25.7975 14.3817 25.849 14.6119 25.7875C15.4738 25.5582 16.3014 25.2152 17.0728 24.7675C17.2775 24.6486 17.4141 24.4401 17.4412 24.205L17.6887 21.9813C17.7862 21.8888 17.88 21.795 17.97 21.7L20.1994 21.4375C20.4347 21.4101 20.6432 21.2732 20.7619 21.0681C21.2087 20.2964 21.5514 19.4689 21.7809 18.6072C21.8422 18.3769 21.7903 18.1312 21.6413 17.9453L20.25 16.2025ZM12 19.75C9.92893 19.75 8.25 18.0711 8.25 16C8.25 13.9289 9.92893 12.25 12 12.25C14.0711 12.25 15.75 13.9289 15.75 16C15.75 18.0711 14.0711 19.75 12 19.75Z" fill="white"/>
</g>
<defs>
<clipPath id="clip0_64_449">
<rect width="24" height="24" fill="white" transform="translate(0 4)"/>
</clipPath>
</defs>
</svg>
