<svg width="18" height="15" viewBox="0 0 18 15" fill="none" xmlns="http://www.w3.org/2000/svg">
<path fill-rule="evenodd" clip-rule="evenodd" d="M17.9997 7.5C17.9997 7.91419 17.664 8.24996 17.2498 8.24996H2.5608L8.03084 13.7191C8.32389 14.0121 8.32389 14.4872 8.03084 14.7803C7.7378 15.0733 7.26269 15.0733 6.96964 14.7803L0.219975 8.0306C0.0791487 7.88993 2.02646e-05 7.69905 2.02646e-05 7.5C2.02646e-05 7.30095 0.0791487 7.11007 0.219975 6.9694L6.96964 0.219731C7.26269 -0.0733111 7.7378 -0.0733111 8.03084 0.219731C8.32389 0.512772 8.32389 0.987887 8.03084 1.28093L2.5608 6.75004H17.2498C17.664 6.75004 17.9997 7.08581 17.9997 7.5Z" fill="white"/>
</svg>
