<svg width="24" height="32" viewBox="0 0 24 32" fill="none" xmlns="http://www.w3.org/2000/svg">
<g clip-path="url(#clip0_2_253)">
<path fill-rule="evenodd" clip-rule="evenodd" d="M13.125 23.125C13.125 23.7463 12.6213 24.25 12 24.25C11.3787 24.25 10.875 23.7463 10.875 23.125C10.875 22.5037 11.3787 22 12 22C12.6213 22 13.125 22.5037 13.125 23.125ZM22.2262 12.1562C16.2808 7.27963 7.71918 7.27963 1.77375 12.1562C1.45351 12.4193 1.40713 12.8921 1.67016 13.2123C1.93318 13.5326 2.40601 13.579 2.72625 13.3159C8.11817 8.89429 15.8818 8.89429 21.2738 13.3159C21.594 13.579 22.0668 13.5326 22.3298 13.2123C22.5929 12.8921 22.5465 12.4193 22.2262 12.1562ZM19.2188 15.5097C14.9905 12.1621 9.01513 12.1621 4.78687 15.5097C4.46223 15.767 4.40767 16.2388 4.665 16.5634C4.92233 16.8881 5.39411 16.9426 5.71875 16.6853C9.40113 13.7705 14.6045 13.7705 18.2869 16.6853C18.4428 16.8089 18.6414 16.8655 18.839 16.8426C19.0366 16.8198 19.2171 16.7194 19.3406 16.5634C19.4642 16.4075 19.5208 16.2089 19.498 16.0113C19.4751 15.8137 19.3747 15.6332 19.2188 15.5097ZM16.1944 18.8622C13.6952 17.0458 10.3105 17.0458 7.81125 18.8622C7.47625 19.1061 7.40238 19.5753 7.64625 19.9103C7.89012 20.2453 8.35938 20.3192 8.69438 20.0753C10.6668 18.6409 13.3389 18.6409 15.3112 20.0753C15.6462 20.3192 16.1155 20.2453 16.3594 19.9103C16.6032 19.5753 16.5294 19.1061 16.1944 18.8622Z" fill="#91ADC9"/>
</g>
<defs>
<clipPath id="clip0_2_253">
<rect width="24" height="24" fill="white" transform="translate(0 4)"/>
</clipPath>
</defs>
</svg>
