<svg width="14" height="21" viewBox="0 0 14 21" fill="none" xmlns="http://www.w3.org/2000/svg">
<path fill-rule="evenodd" clip-rule="evenodd" d="M11.25 0H2.25C1.00736 0 0 1.00736 0 2.25V18.75C0 19.9926 1.00736 21 2.25 21H11.25C12.4926 21 13.5 19.9926 13.5 18.75V2.25C13.5 1.00736 12.4926 0 11.25 0ZM1.5 4.5H12V16.5H1.5V4.5ZM2.25 1.5H11.25C11.6642 1.5 12 1.83579 12 2.25V3H1.5V2.25C1.5 1.83579 1.83579 1.5 2.25 1.5ZM11.25 19.5H2.25C1.83579 19.5 1.5 19.1642 1.5 18.75V18H12V18.75C12 19.1642 11.6642 19.5 11.25 19.5Z" fill="white"/>
</svg>
