<svg width="20" height="18" viewBox="0 0 20 18" fill="none" xmlns="http://www.w3.org/2000/svg">
<path fill-rule="evenodd" clip-rule="evenodd" d="M19.5011 8.99951C19.5015 13.9235 15.545 17.9338 10.6215 18H10.5006C8.20192 18.0057 5.98934 17.1261 4.32211 15.5436C4.02101 15.2588 4.00779 14.7839 4.29258 14.4828C4.57736 14.1817 5.05232 14.1685 5.35342 14.4532C8.34611 17.2756 13.0536 17.1608 15.9052 14.196C18.7568 11.2312 18.6883 6.52278 15.7517 3.64218C12.815 0.761584 8.10616 0.783825 5.19684 3.69204C5.18919 3.70032 5.18105 3.70815 5.17247 3.71547L2.68046 5.99935H5.25028C5.66452 5.99935 6.00033 6.33515 6.00033 6.74939C6.00033 7.16363 5.66452 7.49943 5.25028 7.49943H0.750041C0.335805 7.49943 0 7.16363 0 6.74939V2.24915C0 1.83491 0.335805 1.4991 0.750041 1.4991C1.16428 1.4991 1.50008 1.83491 1.50008 2.24915V5.04305L4.14866 2.62417C6.72536 0.0574806 10.5936 -0.706232 13.9524 0.68858C17.3112 2.08339 19.5005 5.36259 19.5011 8.99951Z" fill="white"/>
</svg>
