<svg width="22" height="17" viewBox="0 0 22 17" fill="none" xmlns="http://www.w3.org/2000/svg">
<path fill-rule="evenodd" clip-rule="evenodd" d="M19.7241 3.03448H18.2069V2.27586C18.2069 1.01894 17.188 0 15.931 0H2.27586C1.01894 0 0 1.01894 0 2.27586V11.3793C0 12.6362 1.01894 13.6552 2.27586 13.6552H12.8966V14.4138C12.8966 15.6707 13.9155 16.6897 15.1724 16.6897H19.7241C20.9811 16.6897 22 15.6707 22 14.4138V5.31034C22 4.05342 20.9811 3.03448 19.7241 3.03448ZM2.27586 12.1379C1.85689 12.1379 1.51724 11.7983 1.51724 11.3793V2.27586C1.51724 1.85689 1.85689 1.51724 2.27586 1.51724H15.931C16.35 1.51724 16.6897 1.85689 16.6897 2.27586V3.03448H15.1724C13.9155 3.03448 12.8966 4.05342 12.8966 5.31034V12.1379H2.27586ZM20.4828 14.4138C20.4828 14.8328 20.1431 15.1724 19.7241 15.1724H15.1724C14.7534 15.1724 14.4138 14.8328 14.4138 14.4138V5.31034C14.4138 4.89137 14.7534 4.55172 15.1724 4.55172H19.7241C20.1431 4.55172 20.4828 4.89137 20.4828 5.31034V14.4138ZM11.3793 15.931C11.3793 16.35 11.0397 16.6897 10.6207 16.6897H6.82759C6.40861 16.6897 6.06897 16.35 6.06897 15.931C6.06897 15.5121 6.40861 15.1724 6.82759 15.1724H10.6207C11.0397 15.1724 11.3793 15.5121 11.3793 15.931ZM18.9655 6.82759C18.9655 7.24656 18.6259 7.58621 18.2069 7.58621H16.6897C16.2707 7.58621 15.931 7.24656 15.931 6.82759C15.931 6.40861 16.2707 6.06897 16.6897 6.06897H18.2069C18.6259 6.06897 18.9655 6.40861 18.9655 6.82759Z" fill="white"/>
</svg>
