<svg width="20" height="20" viewBox="0 0 20 20" fill="none" xmlns="http://www.w3.org/2000/svg">
<path fill-rule="evenodd" clip-rule="evenodd" d="M10 0C4.47715 0 0 4.47715 0 10C0 15.5228 4.47715 20 10 20C15.5228 20 20 15.5228 20 10C19.9942 4.47957 15.5204 0.00582964 10 0ZM7.46442 13.8462H12.5356C12.0192 15.6096 11.1538 17.199 10 18.451C8.84615 17.199 7.98077 15.6096 7.46442 13.8462ZM7.11538 12.3077C6.86026 10.7798 6.86026 9.22019 7.11538 7.69231H12.8846C13.1397 9.22019 13.1397 10.7798 12.8846 12.3077H7.11538ZM1.53846 10C1.53779 9.21965 1.64555 8.443 1.85865 7.69231H5.55673C5.32725 9.22221 5.32725 10.7778 5.55673 12.3077H1.85865C1.64555 11.557 1.53779 10.7803 1.53846 10ZM12.5356 6.15385H7.46442C7.98077 4.39038 8.84615 2.80096 10 1.54904C11.1538 2.80096 12.0192 4.39038 12.5356 6.15385ZM14.4433 7.69231H18.1413C18.5683 9.20115 18.5683 10.7988 18.1413 12.3077H14.4433C14.6728 10.7778 14.6728 9.22221 14.4433 7.69231ZM17.5356 6.15385H14.1288C13.7363 4.60915 13.077 3.14485 12.1808 1.82692C14.4962 2.44916 16.441 4.02066 17.5356 6.15385ZM7.81923 1.82692C6.92297 3.14485 6.26372 4.60915 5.87115 6.15385H2.46442C3.55896 4.02066 5.50378 2.44916 7.81923 1.82692ZM2.46442 13.8462H5.87115C6.26372 15.3909 6.92297 16.8551 7.81923 18.1731C5.50378 17.5508 3.55896 15.9793 2.46442 13.8462ZM12.1808 18.1731C13.077 16.8551 13.7363 15.3909 14.1288 13.8462H17.5356C16.441 15.9793 14.4962 17.5508 12.1808 18.1731Z" fill="white"/>
</svg>
