<svg width="21" height="15" viewBox="0 0 21 15" fill="none" xmlns="http://www.w3.org/2000/svg">
<path fill-rule="evenodd" clip-rule="evenodd" d="M17.9118 3.06284C15.9482 1.09478 13.2801 -0.00778054 10.5 3.05175e-05H10.4625C4.69406 0.0197181 0 4.78127 0 10.606V12.75C0 13.5784 0.671572 14.25 1.5 14.25H19.5C20.3284 14.25 21 13.5784 21 12.75V10.5C21.0077 7.70751 19.8954 5.02851 17.9118 3.06284ZM19.5 12.75H9.7228L14.8565 5.69065C15.1004 5.35565 15.0265 4.88639 14.6915 4.64252C14.3565 4.39866 13.8873 4.47253 13.6434 4.80752L7.86749 12.75H1.5V10.606C1.5 10.3172 1.51406 10.0322 1.54031 9.75002H3.74999C4.16421 9.75002 4.49999 9.41423 4.49999 9.00002C4.49999 8.5858 4.16421 8.25002 3.74999 8.25002H1.80656C2.77406 4.6069 5.93155 1.85253 9.74999 1.5319V3.75003C9.74999 4.16424 10.0858 4.50002 10.5 4.50002C10.9142 4.50002 11.25 4.16424 11.25 3.75003V1.53097C15.0633 1.85187 18.2582 4.54576 19.2187 8.25002H17.25C16.8358 8.25002 16.5 8.5858 16.5 9.00002C16.5 9.41423 16.8358 9.75002 17.25 9.75002H19.469C19.4887 9.99845 19.5 10.2478 19.5 10.5V12.75Z" fill="white"/>
</svg>
