<svg width="24" height="32" viewBox="0 0 24 32" fill="none" xmlns="http://www.w3.org/2000/svg">
<g clip-path="url(#clip0_54_385)">
<path fill-rule="evenodd" clip-rule="evenodd" d="M12 11.5C9.51472 11.5 7.5 13.5147 7.5 16C7.5 18.4853 9.51472 20.5 12 20.5C14.4853 20.5 16.5 18.4853 16.5 16C16.4974 13.5158 14.4842 11.5026 12 11.5ZM12 19C10.3431 19 9 17.6569 9 16C9 14.3431 10.3431 13 12 13C13.6569 13 15 14.3431 15 16C15 17.6569 13.6569 19 12 19ZM20.25 16.2025C20.2537 16.0675 20.2537 15.9325 20.25 15.7975L21.6488 14.05C21.7975 13.8639 21.849 13.6183 21.7875 13.3881C21.5582 12.5262 21.2152 11.6986 20.7675 10.9272C20.6486 10.7225 20.4401 10.5859 20.205 10.5588L17.9813 10.3113C17.8888 10.2138 17.795 10.12 17.7 10.03L17.4375 7.80063C17.4101 7.56531 17.2732 7.35677 17.0681 7.23813C16.2964 6.79126 15.4689 6.44859 14.6072 6.21906C14.3769 6.15784 14.1312 6.20969 13.9453 6.35875L12.2025 7.75C12.0675 7.75 11.9325 7.75 11.7975 7.75L10.05 6.35406C9.86393 6.20533 9.61827 6.15383 9.38813 6.21531C8.52633 6.44503 7.6988 6.78802 6.92719 7.23531C6.72249 7.35417 6.58592 7.56268 6.55875 7.79781L6.31125 10.0253C6.21375 10.1184 6.12 10.2122 6.03 10.3066L3.80063 10.5625C3.56531 10.5899 3.35677 10.7268 3.23813 10.9319C2.79126 11.7036 2.44859 12.5311 2.21906 13.3928C2.15784 13.6231 2.20969 13.8688 2.35875 14.0547L3.75 15.7975C3.75 15.9325 3.75 16.0675 3.75 16.2025L2.35406 17.95C2.20533 18.1361 2.15383 18.3817 2.21531 18.6119C2.44462 19.4738 2.78763 20.3014 3.23531 21.0728C3.35417 21.2775 3.56268 21.4141 3.79781 21.4412L6.02156 21.6887C6.11469 21.7862 6.20844 21.88 6.30281 21.97L6.5625 24.1994C6.58988 24.4347 6.72682 24.6432 6.93188 24.7619C7.70359 25.2087 8.5311 25.5514 9.39281 25.7809C9.6231 25.8422 9.86878 25.7903 10.0547 25.6413L11.7975 24.25C11.9325 24.2537 12.0675 24.2537 12.2025 24.25L13.95 25.6488C14.1361 25.7975 14.3817 25.849 14.6119 25.7875C15.4738 25.5582 16.3014 25.2152 17.0728 24.7675C17.2775 24.6486 17.4141 24.4401 17.4412 24.205L17.6887 21.9813C17.7862 21.8888 17.88 21.795 17.97 21.7L20.1994 21.4375C20.4347 21.4101 20.6432 21.2732 20.7619 21.0681C21.2087 20.2964 21.5514 19.4689 21.7809 18.6072C21.8422 18.3769 21.7903 18.1312 21.6413 17.9453L20.25 16.2025ZM18.7406 15.5931C18.7566 15.8641 18.7566 16.1359 18.7406 16.4069C18.7295 16.5924 18.7876 16.7755 18.9037 16.9206L20.2341 18.5828C20.0814 19.0679 19.886 19.5385 19.65 19.9891L17.5312 20.2291C17.3467 20.2495 17.1764 20.3377 17.0531 20.4766C16.8727 20.6795 16.6805 20.8717 16.4775 21.0522C16.3387 21.1754 16.2505 21.3458 16.23 21.5303L15.9947 23.6472C15.5442 23.8833 15.0736 24.0787 14.5884 24.2313L12.9253 22.9009C12.7922 22.7946 12.6269 22.7367 12.4566 22.7369H12.4116C12.1405 22.7528 11.8688 22.7528 11.5978 22.7369C11.4123 22.7257 11.2292 22.7838 11.0841 22.9L9.41719 24.2313C8.93206 24.0786 8.46146 23.8831 8.01094 23.6472L7.77094 21.5312C7.75046 21.3467 7.66227 21.1764 7.52344 21.0531C7.32048 20.8727 7.12827 20.6805 6.94781 20.4775C6.82456 20.3387 6.6542 20.2505 6.46969 20.23L4.35281 19.9937C4.11674 19.5433 3.92128 19.0727 3.76875 18.5875L5.09906 16.9244C5.21522 16.7793 5.27336 16.5962 5.26219 16.4106C5.24625 16.1396 5.24625 15.8679 5.26219 15.5969C5.27336 15.4113 5.21522 15.2282 5.09906 15.0831L3.76875 13.4172C3.9214 12.9321 4.11685 12.4615 4.35281 12.0109L6.46875 11.7709C6.65326 11.7505 6.82362 11.6623 6.94688 11.5234C7.12733 11.3205 7.31954 11.1283 7.5225 10.9478C7.66188 10.8245 7.75043 10.6537 7.77094 10.4688L8.00625 8.35281C8.45672 8.11674 8.92733 7.92128 9.4125 7.76875L11.0756 9.09906C11.2207 9.21522 11.4038 9.27336 11.5894 9.26219C11.8604 9.24625 12.1321 9.24625 12.4031 9.26219C12.5887 9.27336 12.7718 9.21522 12.9169 9.09906L14.5828 7.76875C15.0679 7.9214 15.5385 8.11685 15.9891 8.35281L16.2291 10.4688C16.2495 10.6533 16.3377 10.8236 16.4766 10.9469C16.6795 11.1273 16.8717 11.3195 17.0522 11.5225C17.1754 11.6613 17.3458 11.7495 17.5303 11.77L19.6472 12.0053C19.8833 12.4558 20.0787 12.9264 20.2313 13.4116L18.9009 15.0747C18.7837 15.221 18.7255 15.406 18.7378 15.5931H18.7406Z" fill="#91ADC9"/>
</g>
<defs>
<clipPath id="clip0_54_385">
<rect width="24" height="24" fill="white" transform="translate(0 4)"/>
</clipPath>
</defs>
</svg>
